# xmcd CD database file
#
# Track frame offsets:
#	150
#	12612
#	22431
#	34618
#	45628
#	57762
#	72182
#	89546
#	101613
#	125198
#	147082
#	175264
#	187119
#	233466
#	285572
#	297552
#
# Disc length: 4295 seconds
#
# Revision: 0
# Processed by: cddbd v1.4PL0 Copyright (c) Steve Scherf et al.
# Submitted via: CDex 1.51
#
DISCID=f210c510
DTITLE=B. B. King - B. B. King Anthology [CDA)
DYEAR=2003
DGENRE=Jazz
TTITLE0=How Blue Can You Get
TTITLE1=Sneakin Around
TTITLE2=Help The Poor
TTITLE3=Stop Leadin Me On
TTITLE4=Never Trust A Woman
TTITLE5=Every Day I Have The Blues (Live At The Regal)
TTITLE6=Sweet Little Angel (Live At The Regal)
TTITLE7=All Over Again
TTITLE8=Don't Answer The Door
TTITLE9=Gambler's Blues
TTITLE10=Sweet Sixteen Parts One and Two
TTITLE11=Paying The Cost To Be The Boss
TTITLE12=Lucille
TTITLE13=Call It Stormy Monday (With Albert Collins)
TTITLE14=Please Accept My Love
TTITLE15=The Thrill Is Gone
EXTD=YEAR: 2003
EXTT0=
EXTT1=
EXTT2=
EXTT3=
EXTT4=
EXTT5=
EXTT6=
EXTT7=
EXTT8=
EXTT9=
EXTT10=
EXTT11=
EXTT12=
EXTT13=
EXTT14=
EXTT15=
PLAYORDER=
